<svg width="24" height="26" viewBox="0 0 24 26" fill="none" xmlns="http://www.w3.org/2000/svg">
<path d="M11.375 23H3.875C3.54348 23 3.22554 22.8683 2.99112 22.6339C2.7567 22.3995 2.625 22.0815 2.625 21.75V4.25C2.625 3.91848 2.7567 3.60054 2.99112 3.36612C3.22554 3.1317 3.54348 3 3.875 3H10.125V6.75C10.125 7.74456 10.5201 8.69839 11.2233 9.40165C11.9266 10.1049 12.8804 10.5 13.875 10.5H17.625V16.75C17.625 17.0815 17.7567 17.3995 17.9911 17.6339C18.2255 17.8683 18.5435 18 18.875 18C19.2065 18 19.5245 17.8683 19.7589 17.6339C19.9933 17.3995 20.125 17.0815 20.125 16.75V9.25C20.125 9.25 20.125 9.25 20.125 9.175C20.112 9.06017 20.0868 8.94704 20.05 8.8375V8.725C19.9899 8.59647 19.9097 8.47833 19.8125 8.375L12.3125 0.875C12.2092 0.77777 12.091 0.697601 11.9625 0.6375C11.9211 0.630262 11.8789 0.630262 11.8375 0.6375C11.716 0.572504 11.5853 0.526152 11.45 0.5H3.875C2.88044 0.5 1.92661 0.895088 1.22335 1.59835C0.520088 2.30161 0.125 3.25544 0.125 4.25V21.75C0.125 22.7446 0.520088 23.6984 1.22335 24.4016C1.92661 25.1049 2.88044 25.5 3.875 25.5H11.375C11.7065 25.5 12.0245 25.3683 12.2589 25.1339C12.4933 24.8995 12.625 24.5815 12.625 24.25C12.625 23.9185 12.4933 23.6005 12.2589 23.3661C12.0245 23.1317 11.7065 23 11.375 23ZM12.625 4.7625L15.8625 8H13.875C13.5435 8 13.2255 7.8683 12.9911 7.63388C12.7567 7.39946 12.625 7.08152 12.625 6.75V4.7625ZM6.375 15.5H13.875C14.2065 15.5 14.5245 15.3683 14.7589 15.1339C14.9933 14.8995 15.125 14.5815 15.125 14.25C15.125 13.9185 14.9933 13.6005 14.7589 13.3661C14.5245 13.1317 14.2065 13 13.875 13H6.375C6.04348 13 5.72554 13.1317 5.49112 13.3661C5.2567 13.6005 5.125 13.9185 5.125 14.25C5.125 14.5815 5.2567 14.8995 5.49112 15.1339C5.72554 15.3683 6.04348 15.5 6.375 15.5ZM11.375 18H6.375C6.04348 18 5.72554 18.1317 5.49112 18.3661C5.2567 18.6005 5.125 18.9185 5.125 19.25C5.125 19.5815 5.2567 19.8995 5.49112 20.1339C5.72554 20.3683 6.04348 20.5 6.375 20.5H11.375C11.7065 20.5 12.0245 20.3683 12.2589 20.1339C12.4933 19.8995 12.625 19.5815 12.625 19.25C12.625 18.9185 12.4933 18.6005 12.2589 18.3661C12.0245 18.1317 11.7065 18 11.375 18ZM6.375 10.5H7.625C7.95652 10.5 8.27446 10.3683 8.50888 10.1339C8.7433 9.89946 8.875 9.58152 8.875 9.25C8.875 8.91848 8.7433 8.60054 8.50888 8.36612C8.27446 8.13169 7.95652 8 7.625 8H6.375C6.04348 8 5.72554 8.13169 5.49112 8.36612C5.2567 8.60054 5.125 8.91848 5.125 9.25C5.125 9.58152 5.2567 9.89946 5.49112 10.1339C5.72554 10.3683 6.04348 10.5 6.375 10.5ZM23.5125 18.3625C23.3963 18.2453 23.258 18.1523 23.1057 18.0889C22.9534 18.0254 22.79 17.9927 22.625 17.9927C22.46 17.9927 22.2966 18.0254 22.1443 18.0889C21.992 18.1523 21.8537 18.2453 21.7375 18.3625L17.625 22.4875L16.0125 20.8625C15.896 20.7459 15.7576 20.6535 15.6053 20.5904C15.453 20.5273 15.2898 20.4949 15.125 20.4949C14.9602 20.4949 14.797 20.5273 14.6447 20.5904C14.4924 20.6535 14.354 20.7459 14.2375 20.8625C14.121 20.979 14.0285 21.1174 13.9654 21.2697C13.9023 21.422 13.8699 21.5852 13.8699 21.75C13.8699 21.9148 13.9023 22.078 13.9654 22.2303C14.0285 22.3826 14.121 22.5209 14.2375 22.6375L16.7375 25.1375C16.8537 25.2547 16.992 25.3477 17.1443 25.4111C17.2966 25.4746 17.46 25.5072 17.625 25.5072C17.79 25.5072 17.9534 25.4746 18.1057 25.4111C18.258 25.3477 18.3963 25.2547 18.5125 25.1375L23.5125 20.1375C23.6297 20.0213 23.7227 19.883 23.7861 19.7307C23.8496 19.5784 23.8822 19.415 23.8822 19.25C23.8822 19.085 23.8496 18.9216 23.7861 18.7693C23.7227 18.617 23.6297 18.4787 23.5125 18.3625Z" fill="black"/>
<path d="M11.375 23H3.875C3.54348 23 3.22554 22.8683 2.99112 22.6339C2.7567 22.3995 2.625 22.0815 2.625 21.75V4.25C2.625 3.91848 2.7567 3.60054 2.99112 3.36612C3.22554 3.1317 3.54348 3 3.875 3H10.125V6.75C10.125 7.74456 10.5201 8.69839 11.2233 9.40165C11.9266 10.1049 12.8804 10.5 13.875 10.5H17.625V16.75C17.625 17.0815 17.7567 17.3995 17.9911 17.6339C18.2255 17.8683 18.5435 18 18.875 18C19.2065 18 19.5245 17.8683 19.7589 17.6339C19.9933 17.3995 20.125 17.0815 20.125 16.75V9.25C20.125 9.25 20.125 9.25 20.125 9.175C20.112 9.06017 20.0868 8.94704 20.05 8.8375V8.725C19.9899 8.59647 19.9097 8.47833 19.8125 8.375L12.3125 0.875C12.2092 0.77777 12.091 0.697601 11.9625 0.6375C11.9211 0.630262 11.8789 0.630262 11.8375 0.6375C11.716 0.572504 11.5853 0.526152 11.45 0.5H3.875C2.88044 0.5 1.92661 0.895088 1.22335 1.59835C0.520088 2.30161 0.125 3.25544 0.125 4.25V21.75C0.125 22.7446 0.520088 23.6984 1.22335 24.4016C1.92661 25.1049 2.88044 25.5 3.875 25.5H11.375C11.7065 25.5 12.0245 25.3683 12.2589 25.1339C12.4933 24.8995 12.625 24.5815 12.625 24.25C12.625 23.9185 12.4933 23.6005 12.2589 23.3661C12.0245 23.1317 11.7065 23 11.375 23ZM12.625 4.7625L15.8625 8H13.875C13.5435 8 13.2255 7.8683 12.9911 7.63388C12.7567 7.39946 12.625 7.08152 12.625 6.75V4.7625ZM6.375 15.5H13.875C14.2065 15.5 14.5245 15.3683 14.7589 15.1339C14.9933 14.8995 15.125 14.5815 15.125 14.25C15.125 13.9185 14.9933 13.6005 14.7589 13.3661C14.5245 13.1317 14.2065 13 13.875 13H6.375C6.04348 13 5.72554 13.1317 5.49112 13.3661C5.2567 13.6005 5.125 13.9185 5.125 14.25C5.125 14.5815 5.2567 14.8995 5.49112 15.1339C5.72554 15.3683 6.04348 15.5 6.375 15.5ZM11.375 18H6.375C6.04348 18 5.72554 18.1317 5.49112 18.3661C5.2567 18.6005 5.125 18.9185 5.125 19.25C5.125 19.5815 5.2567 19.8995 5.49112 20.1339C5.72554 20.3683 6.04348 20.5 6.375 20.5H11.375C11.7065 20.5 12.0245 20.3683 12.2589 20.1339C12.4933 19.8995 12.625 19.5815 12.625 19.25C12.625 18.9185 12.4933 18.6005 12.2589 18.3661C12.0245 18.1317 11.7065 18 11.375 18ZM6.375 10.5H7.625C7.95652 10.5 8.27446 10.3683 8.50888 10.1339C8.7433 9.89946 8.875 9.58152 8.875 9.25C8.875 8.91848 8.7433 8.60054 8.50888 8.36612C8.27446 8.13169 7.95652 8 7.625 8H6.375C6.04348 8 5.72554 8.13169 5.49112 8.36612C5.2567 8.60054 5.125 8.91848 5.125 9.25C5.125 9.58152 5.2567 9.89946 5.49112 10.1339C5.72554 10.3683 6.04348 10.5 6.375 10.5ZM23.5125 18.3625C23.3963 18.2453 23.258 18.1523 23.1057 18.0889C22.9534 18.0254 22.79 17.9927 22.625 17.9927C22.46 17.9927 22.2966 18.0254 22.1443 18.0889C21.992 18.1523 21.8537 18.2453 21.7375 18.3625L17.625 22.4875L16.0125 20.8625C15.896 20.7459 15.7576 20.6535 15.6053 20.5904C15.453 20.5273 15.2898 20.4949 15.125 20.4949C14.9602 20.4949 14.797 20.5273 14.6447 20.5904C14.4924 20.6535 14.354 20.7459 14.2375 20.8625C14.121 20.979 14.0285 21.1174 13.9654 21.2697C13.9023 21.422 13.8699 21.5852 13.8699 21.75C13.8699 21.9148 13.9023 22.078 13.9654 22.2303C14.0285 22.3826 14.121 22.5209 14.2375 22.6375L16.7375 25.1375C16.8537 25.2547 16.992 25.3477 17.1443 25.4111C17.2966 25.4746 17.46 25.5072 17.625 25.5072C17.79 25.5072 17.9534 25.4746 18.1057 25.4111C18.258 25.3477 18.3963 25.2547 18.5125 25.1375L23.5125 20.1375C23.6297 20.0213 23.7227 19.883 23.7861 19.7307C23.8496 19.5784 23.8822 19.415 23.8822 19.25C23.8822 19.085 23.8496 18.9216 23.7861 18.7693C23.7227 18.617 23.6297 18.4787 23.5125 18.3625Z" fill="#008A7A"/>
</svg>
