<svg width="32" height="32" viewBox="0 0 32 32" fill="none" xmlns="http://www.w3.org/2000/svg">
<rect width="32" height="32" rx="16" fill="#008A7A"/>
<path d="M14.4796 7.81138V11.6674C14.4796 11.7719 14.4381 11.872 14.3642 11.9459C14.2903 12.0198 14.1902 12.0613 14.0857 12.0613H11.3286L14.4796 7.81138ZM8.3509 22.5028C8.24644 22.5028 8.14626 22.4613 8.07239 22.3875C7.99853 22.3136 7.95703 22.2134 7.95703 22.109V18.1702C7.95703 18.0658 7.99853 17.9656 8.07239 17.8917C8.14626 17.8179 8.24644 17.7764 8.3509 17.7764H19.1115C19.216 17.7764 19.3162 17.8179 19.39 17.8917C19.4639 17.9656 19.5054 18.0658 19.5054 18.1702V22.109C19.5054 22.2134 19.4639 22.3136 19.39 22.3875C19.3162 22.4613 19.216 22.5028 19.1115 22.5028H8.3509ZM24.0428 24.6061C24.0428 24.7106 24.0013 24.8108 23.9274 24.8846C23.8536 24.9585 23.7534 25 23.6489 25H11.3286C11.2241 25 11.1239 24.9585 11.0501 24.8846C10.9762 24.8108 10.9347 24.7106 10.9347 24.6061V23.2906H19.1115C19.4249 23.2906 19.7255 23.1661 19.947 22.9445C20.1686 22.7229 20.2931 22.4224 20.2931 22.109V18.1702C20.2931 17.8569 20.1686 17.5563 19.947 17.3347C19.7255 17.1131 19.4249 16.9886 19.1115 16.9886H10.9347V12.849H14.0857C14.3991 12.849 14.6996 12.7245 14.9212 12.5029C15.1428 12.2813 15.2673 11.9808 15.2673 11.6674V7H23.6489C23.7534 7 23.8536 7.0415 23.9274 7.11536C24.0013 7.18923 24.0428 7.28941 24.0428 7.39387V24.6061Z" fill="white"/>
<path d="M10.61 20.5075V21.5985H9.7002V18.6033H10.9551C11.1993 18.5905 11.4436 18.6284 11.6714 18.7144C11.8336 18.7853 11.9701 18.9014 12.0636 19.0477C12.1582 19.2002 12.207 19.3751 12.2048 19.5528C12.2109 19.6818 12.1879 19.8105 12.1373 19.93C12.0868 20.0495 12.0099 20.1569 11.912 20.2448C11.694 20.428 11.4109 20.5222 11.1224 20.5075H10.61ZM10.61 19.866H10.9133C11.1799 19.866 11.3107 19.765 11.3107 19.568C11.3107 19.371 11.1904 19.2851 10.9446 19.2851H10.61V19.866ZM12.5446 21.5985V18.6033H13.6897C13.8984 18.5881 14.1079 18.6204 14.3013 18.6976C14.4947 18.7748 14.6667 18.8947 14.8035 19.0477C15.0498 19.3398 15.1813 19.7065 15.1747 20.0832C15.1968 20.4833 15.0539 20.8756 14.7773 21.1742C14.646 21.3148 14.4842 21.4258 14.3035 21.4991C14.1227 21.5725 13.9274 21.6064 13.7316 21.5985H12.5446ZM13.4544 20.9065H13.6897C13.768 20.9052 13.8445 20.884 13.9115 20.8449C13.9785 20.8059 14.0337 20.7505 14.0714 20.6843C14.181 20.5022 14.2336 20.2935 14.2231 20.0832C14.2272 19.8866 14.1804 19.6922 14.0871 19.5175C14.0505 19.4464 13.9937 19.3868 13.9233 19.3456C13.853 19.3045 13.772 19.2835 13.6897 19.2851H13.4544V20.9065ZM17.4074 20.4772H16.4453V21.5985H15.5616V18.6033H17.7002V19.3154H16.4453V19.8205H17.4074V20.4772Z" fill="#008A7A"/>
</svg>
