<svg width="24" height="26" viewBox="0 0 24 26" fill="none" xmlns="http://www.w3.org/2000/svg">
<path d="M22.8875 18.8875L19.8625 15.8625C19.7463 15.7453 19.608 15.6523 19.4557 15.5889C19.3034 15.5254 19.14 15.4928 18.975 15.4928C18.81 15.4928 18.6466 15.5254 18.4943 15.5889C18.342 15.6523 18.2037 15.7453 18.0875 15.8625L13.6125 20.3375C13.4967 20.4543 13.405 20.5928 13.3428 20.7451C13.2806 20.8974 13.2491 21.0605 13.25 21.225V24.25C13.25 24.5815 13.3817 24.8995 13.6161 25.1339C13.8505 25.3683 14.1685 25.5 14.5 25.5H17.525C17.6895 25.501 17.8526 25.4694 18.0049 25.4072C18.1572 25.345 18.2957 25.2534 18.4125 25.1375L22.8875 20.6625C23.0047 20.5463 23.0977 20.408 23.1611 20.2557C23.2246 20.1034 23.2573 19.94 23.2573 19.775C23.2573 19.61 23.2246 19.4466 23.1611 19.2943C23.0977 19.142 23.0047 19.0037 22.8875 18.8875ZM17 23H15.75V21.75L18.975 18.525L20.225 19.775L17 23ZM9.5 23H4.5C4.16848 23 3.85054 22.8683 3.61612 22.6339C3.3817 22.3995 3.25 22.0815 3.25 21.75V4.25C3.25 3.91848 3.3817 3.60054 3.61612 3.36612C3.85054 3.1317 4.16848 3 4.5 3H10.75V6.75C10.75 7.74456 11.1451 8.69839 11.8484 9.40165C12.5516 10.1049 13.5054 10.5 14.5 10.5H18.25V11.75C18.25 12.0815 18.3817 12.3995 18.6161 12.6339C18.8505 12.8683 19.1685 13 19.5 13C19.8315 13 20.1495 12.8683 20.3839 12.6339C20.6183 12.3995 20.75 12.0815 20.75 11.75V9.25C20.75 9.25 20.75 9.25 20.75 9.175C20.737 9.06017 20.7118 8.94704 20.675 8.8375V8.725C20.6149 8.59647 20.5347 8.47833 20.4375 8.375L12.9375 0.875C12.8342 0.77777 12.716 0.697601 12.5875 0.6375C12.5502 0.6322 12.5123 0.6322 12.475 0.6375L12.075 0.5H4.5C3.50544 0.5 2.55161 0.895088 1.84835 1.59835C1.14509 2.30161 0.75 3.25544 0.75 4.25V21.75C0.75 22.7446 1.14509 23.6984 1.84835 24.4017C2.55161 25.1049 3.50544 25.5 4.5 25.5H9.5C9.83152 25.5 10.1495 25.3683 10.3839 25.1339C10.6183 24.8995 10.75 24.5815 10.75 24.25C10.75 23.9185 10.6183 23.6005 10.3839 23.3661C10.1495 23.1317 9.83152 23 9.5 23ZM13.25 4.7625L16.4875 8H14.5C14.1685 8 13.8505 7.8683 13.6161 7.63388C13.3817 7.39946 13.25 7.08152 13.25 6.75V4.7625ZM7 15.5H14.5C14.8315 15.5 15.1495 15.3683 15.3839 15.1339C15.6183 14.8995 15.75 14.5815 15.75 14.25C15.75 13.9185 15.6183 13.6005 15.3839 13.3661C15.1495 13.1317 14.8315 13 14.5 13H7C6.66848 13 6.35054 13.1317 6.11612 13.3661C5.8817 13.6005 5.75 13.9185 5.75 14.25C5.75 14.5815 5.8817 14.8995 6.11612 15.1339C6.35054 15.3683 6.66848 15.5 7 15.5ZM7 10.5H8.25C8.58152 10.5 8.89946 10.3683 9.13388 10.1339C9.36831 9.89946 9.5 9.58152 9.5 9.25C9.5 8.91848 9.36831 8.60054 9.13388 8.36612C8.89946 8.1317 8.58152 8 8.25 8H7C6.66848 8 6.35054 8.1317 6.11612 8.36612C5.8817 8.60054 5.75 8.91848 5.75 9.25C5.75 9.58152 5.8817 9.89946 6.11612 10.1339C6.35054 10.3683 6.66848 10.5 7 10.5ZM9.5 18H7C6.66848 18 6.35054 18.1317 6.11612 18.3661C5.8817 18.6005 5.75 18.9185 5.75 19.25C5.75 19.5815 5.8817 19.8995 6.11612 20.1339C6.35054 20.3683 6.66848 20.5 7 20.5H9.5C9.83152 20.5 10.1495 20.3683 10.3839 20.1339C10.6183 19.8995 10.75 19.5815 10.75 19.25C10.75 18.9185 10.6183 18.6005 10.3839 18.3661C10.1495 18.1317 9.83152 18 9.5 18Z" fill="black"/>
<path d="M22.8875 18.8875L19.8625 15.8625C19.7463 15.7453 19.608 15.6523 19.4557 15.5889C19.3034 15.5254 19.14 15.4928 18.975 15.4928C18.81 15.4928 18.6466 15.5254 18.4943 15.5889C18.342 15.6523 18.2037 15.7453 18.0875 15.8625L13.6125 20.3375C13.4967 20.4543 13.405 20.5928 13.3428 20.7451C13.2806 20.8974 13.2491 21.0605 13.25 21.225V24.25C13.25 24.5815 13.3817 24.8995 13.6161 25.1339C13.8505 25.3683 14.1685 25.5 14.5 25.5H17.525C17.6895 25.501 17.8526 25.4694 18.0049 25.4072C18.1572 25.345 18.2957 25.2534 18.4125 25.1375L22.8875 20.6625C23.0047 20.5463 23.0977 20.408 23.1611 20.2557C23.2246 20.1034 23.2573 19.94 23.2573 19.775C23.2573 19.61 23.2246 19.4466 23.1611 19.2943C23.0977 19.142 23.0047 19.0037 22.8875 18.8875ZM17 23H15.75V21.75L18.975 18.525L20.225 19.775L17 23ZM9.5 23H4.5C4.16848 23 3.85054 22.8683 3.61612 22.6339C3.3817 22.3995 3.25 22.0815 3.25 21.75V4.25C3.25 3.91848 3.3817 3.60054 3.61612 3.36612C3.85054 3.1317 4.16848 3 4.5 3H10.75V6.75C10.75 7.74456 11.1451 8.69839 11.8484 9.40165C12.5516 10.1049 13.5054 10.5 14.5 10.5H18.25V11.75C18.25 12.0815 18.3817 12.3995 18.6161 12.6339C18.8505 12.8683 19.1685 13 19.5 13C19.8315 13 20.1495 12.8683 20.3839 12.6339C20.6183 12.3995 20.75 12.0815 20.75 11.75V9.25C20.75 9.25 20.75 9.25 20.75 9.175C20.737 9.06017 20.7118 8.94704 20.675 8.8375V8.725C20.6149 8.59647 20.5347 8.47833 20.4375 8.375L12.9375 0.875C12.8342 0.77777 12.716 0.697601 12.5875 0.6375C12.5502 0.6322 12.5123 0.6322 12.475 0.6375L12.075 0.5H4.5C3.50544 0.5 2.55161 0.895088 1.84835 1.59835C1.14509 2.30161 0.75 3.25544 0.75 4.25V21.75C0.75 22.7446 1.14509 23.6984 1.84835 24.4017C2.55161 25.1049 3.50544 25.5 4.5 25.5H9.5C9.83152 25.5 10.1495 25.3683 10.3839 25.1339C10.6183 24.8995 10.75 24.5815 10.75 24.25C10.75 23.9185 10.6183 23.6005 10.3839 23.3661C10.1495 23.1317 9.83152 23 9.5 23ZM13.25 4.7625L16.4875 8H14.5C14.1685 8 13.8505 7.8683 13.6161 7.63388C13.3817 7.39946 13.25 7.08152 13.25 6.75V4.7625ZM7 15.5H14.5C14.8315 15.5 15.1495 15.3683 15.3839 15.1339C15.6183 14.8995 15.75 14.5815 15.75 14.25C15.75 13.9185 15.6183 13.6005 15.3839 13.3661C15.1495 13.1317 14.8315 13 14.5 13H7C6.66848 13 6.35054 13.1317 6.11612 13.3661C5.8817 13.6005 5.75 13.9185 5.75 14.25C5.75 14.5815 5.8817 14.8995 6.11612 15.1339C6.35054 15.3683 6.66848 15.5 7 15.5ZM7 10.5H8.25C8.58152 10.5 8.89946 10.3683 9.13388 10.1339C9.36831 9.89946 9.5 9.58152 9.5 9.25C9.5 8.91848 9.36831 8.60054 9.13388 8.36612C8.89946 8.1317 8.58152 8 8.25 8H7C6.66848 8 6.35054 8.1317 6.11612 8.36612C5.8817 8.60054 5.75 8.91848 5.75 9.25C5.75 9.58152 5.8817 9.89946 6.11612 10.1339C6.35054 10.3683 6.66848 10.5 7 10.5ZM9.5 18H7C6.66848 18 6.35054 18.1317 6.11612 18.3661C5.8817 18.6005 5.75 18.9185 5.75 19.25C5.75 19.5815 5.8817 19.8995 6.11612 20.1339C6.35054 20.3683 6.66848 20.5 7 20.5H9.5C9.83152 20.5 10.1495 20.3683 10.3839 20.1339C10.6183 19.8995 10.75 19.5815 10.75 19.25C10.75 18.9185 10.6183 18.6005 10.3839 18.3661C10.1495 18.1317 9.83152 18 9.5 18Z" fill="#008A7A"/>
</svg>
