<svg width="23" height="26" viewBox="0 0 23 26" fill="none" xmlns="http://www.w3.org/2000/svg">
<path d="M6.37572 8.16595C6.03753 8.16595 5.7132 8.29328 5.47406 8.51991C5.23492 8.74655 5.10058 9.05393 5.10058 9.37444C5.10058 9.69495 5.23492 10.0023 5.47406 10.229C5.7132 10.4556 6.03753 10.5829 6.37572 10.5829H7.65087C7.98906 10.5829 8.3134 10.4556 8.55253 10.229C8.79167 10.0023 8.92601 9.69495 8.92601 9.37444C8.92601 9.05393 8.79167 8.74655 8.55253 8.51991C8.3134 8.29328 7.98906 8.16595 7.65087 8.16595H6.37572ZM12.7514 22.6678H3.82543C3.48724 22.6678 3.16291 22.5405 2.92377 22.3138C2.68463 22.0872 2.55029 21.7798 2.55029 21.4593V4.5405C2.55029 4.21999 2.68463 3.9126 2.92377 3.68597C3.16291 3.45933 3.48724 3.33201 3.82543 3.33201H10.2012V6.95747C10.2012 7.919 10.6042 8.84115 11.3216 9.52106C12.039 10.201 13.012 10.5829 14.0266 10.5829H17.852V12.9999C17.852 13.3204 17.9864 13.6278 18.2255 13.8544C18.4646 14.0811 18.789 14.2084 19.1272 14.2084C19.4654 14.2084 19.7897 14.0811 20.0288 13.8544C20.268 13.6278 20.4023 13.3204 20.4023 12.9999V9.37444C20.4023 9.37444 20.4023 9.37444 20.4023 9.30193C20.389 9.19091 20.3634 9.08154 20.3258 8.97564V8.86688C20.2645 8.74262 20.1827 8.6284 20.0835 8.5285L12.4327 1.27758C12.3273 1.18358 12.2067 1.10608 12.0756 1.04797C12.0334 1.04097 11.9903 1.04097 11.9481 1.04797C11.8241 0.985135 11.6909 0.940323 11.5528 0.915039H3.82543C2.81087 0.915039 1.83785 1.29701 1.12044 1.97691C0.403036 2.65682 0 3.57897 0 4.5405V21.4593C0 22.4208 0.403036 23.343 1.12044 24.0229C1.83785 24.7028 2.81087 25.0848 3.82543 25.0848H12.7514C13.0896 25.0848 13.414 24.9574 13.6531 24.7308C13.8922 24.5042 14.0266 24.1968 14.0266 23.8763C14.0266 23.5558 13.8922 23.2484 13.6531 23.0217C13.414 22.7951 13.0896 22.6678 12.7514 22.6678ZM12.7514 5.03598L16.0541 8.16595H14.0266C13.6884 8.16595 13.3641 8.03863 13.1249 7.812C12.8858 7.58536 12.7514 7.27798 12.7514 6.95747V5.03598ZM14.0266 12.9999H6.37572C6.03753 12.9999 5.7132 13.1272 5.47406 13.3539C5.23492 13.5805 5.10058 13.8879 5.10058 14.2084C5.10058 14.5289 5.23492 14.8363 5.47406 15.0629C5.7132 15.2895 6.03753 15.4169 6.37572 15.4169H14.0266C14.3648 15.4169 14.6891 15.2895 14.9283 15.0629C15.1674 14.8363 15.3017 14.5289 15.3017 14.2084C15.3017 13.8879 15.1674 13.5805 14.9283 13.3539C14.6891 13.1272 14.3648 12.9999 14.0266 12.9999ZM22.5828 20.6013C22.4643 20.488 22.3232 20.3981 22.1679 20.3367C22.0125 20.2754 21.8458 20.2438 21.6775 20.2438C21.5091 20.2438 21.3425 20.2754 21.1871 20.3367C21.0317 20.3981 20.8906 20.488 20.7721 20.6013L20.4023 20.9638V17.8338C20.4023 17.5133 20.268 17.2059 20.0288 16.9793C19.7897 16.7527 19.4654 16.6254 19.1272 16.6254C18.789 16.6254 18.4646 16.7527 18.2255 16.9793C17.9864 17.2059 17.852 17.5133 17.852 17.8338V20.9638L17.4822 20.6013C17.2421 20.3737 16.9165 20.2459 16.5769 20.2459C16.2373 20.2459 15.9116 20.3737 15.6715 20.6013C15.4314 20.8288 15.2965 21.1375 15.2965 21.4593C15.2965 21.7811 15.4314 22.0898 15.6715 22.3173L18.2218 24.7343C18.3431 24.8443 18.4861 24.9306 18.6426 24.9881C18.7953 25.052 18.9603 25.085 19.1272 25.085C19.2941 25.085 19.4591 25.052 19.6117 24.9881C19.7682 24.9306 19.9113 24.8443 20.0325 24.7343L22.5828 22.3173C22.7023 22.205 22.7972 22.0713 22.8619 21.9241C22.9267 21.7768 22.96 21.6188 22.96 21.4593C22.96 21.2998 22.9267 21.1418 22.8619 20.9945C22.7972 20.8473 22.7023 20.7136 22.5828 20.6013ZM11.4763 20.2508C11.8145 20.2508 12.1388 20.1235 12.378 19.8969C12.6171 19.6702 12.7514 19.3628 12.7514 19.0423C12.7514 18.7218 12.6171 18.4144 12.378 18.1878C12.1388 17.9612 11.8145 17.8338 11.4763 17.8338H6.37572C6.03753 17.8338 5.7132 17.9612 5.47406 18.1878C5.23492 18.4144 5.10058 18.7218 5.10058 19.0423C5.10058 19.3628 5.23492 19.6702 5.47406 19.8969C5.7132 20.1235 6.03753 20.2508 6.37572 20.2508H11.4763Z" fill="black"/>
<path d="M6.37572 8.16595C6.03753 8.16595 5.7132 8.29328 5.47406 8.51991C5.23492 8.74655 5.10058 9.05393 5.10058 9.37444C5.10058 9.69495 5.23492 10.0023 5.47406 10.229C5.7132 10.4556 6.03753 10.5829 6.37572 10.5829H7.65087C7.98906 10.5829 8.3134 10.4556 8.55253 10.229C8.79167 10.0023 8.92601 9.69495 8.92601 9.37444C8.92601 9.05393 8.79167 8.74655 8.55253 8.51991C8.3134 8.29328 7.98906 8.16595 7.65087 8.16595H6.37572ZM12.7514 22.6678H3.82543C3.48724 22.6678 3.16291 22.5405 2.92377 22.3138C2.68463 22.0872 2.55029 21.7798 2.55029 21.4593V4.5405C2.55029 4.21999 2.68463 3.9126 2.92377 3.68597C3.16291 3.45933 3.48724 3.33201 3.82543 3.33201H10.2012V6.95747C10.2012 7.919 10.6042 8.84115 11.3216 9.52106C12.039 10.201 13.012 10.5829 14.0266 10.5829H17.852V12.9999C17.852 13.3204 17.9864 13.6278 18.2255 13.8544C18.4646 14.0811 18.789 14.2084 19.1272 14.2084C19.4654 14.2084 19.7897 14.0811 20.0288 13.8544C20.268 13.6278 20.4023 13.3204 20.4023 12.9999V9.37444C20.4023 9.37444 20.4023 9.37444 20.4023 9.30193C20.389 9.19091 20.3634 9.08154 20.3258 8.97564V8.86688C20.2645 8.74262 20.1827 8.6284 20.0835 8.5285L12.4327 1.27758C12.3273 1.18358 12.2067 1.10608 12.0756 1.04797C12.0334 1.04097 11.9903 1.04097 11.9481 1.04797C11.8241 0.985135 11.6909 0.940323 11.5528 0.915039H3.82543C2.81087 0.915039 1.83785 1.29701 1.12044 1.97691C0.403036 2.65682 0 3.57897 0 4.5405V21.4593C0 22.4208 0.403036 23.343 1.12044 24.0229C1.83785 24.7028 2.81087 25.0848 3.82543 25.0848H12.7514C13.0896 25.0848 13.414 24.9574 13.6531 24.7308C13.8922 24.5042 14.0266 24.1968 14.0266 23.8763C14.0266 23.5558 13.8922 23.2484 13.6531 23.0217C13.414 22.7951 13.0896 22.6678 12.7514 22.6678ZM12.7514 5.03598L16.0541 8.16595H14.0266C13.6884 8.16595 13.3641 8.03863 13.1249 7.812C12.8858 7.58536 12.7514 7.27798 12.7514 6.95747V5.03598ZM14.0266 12.9999H6.37572C6.03753 12.9999 5.7132 13.1272 5.47406 13.3539C5.23492 13.5805 5.10058 13.8879 5.10058 14.2084C5.10058 14.5289 5.23492 14.8363 5.47406 15.0629C5.7132 15.2895 6.03753 15.4169 6.37572 15.4169H14.0266C14.3648 15.4169 14.6891 15.2895 14.9283 15.0629C15.1674 14.8363 15.3017 14.5289 15.3017 14.2084C15.3017 13.8879 15.1674 13.5805 14.9283 13.3539C14.6891 13.1272 14.3648 12.9999 14.0266 12.9999ZM22.5828 20.6013C22.4643 20.488 22.3232 20.3981 22.1679 20.3367C22.0125 20.2754 21.8458 20.2438 21.6775 20.2438C21.5091 20.2438 21.3425 20.2754 21.1871 20.3367C21.0317 20.3981 20.8906 20.488 20.7721 20.6013L20.4023 20.9638V17.8338C20.4023 17.5133 20.268 17.2059 20.0288 16.9793C19.7897 16.7527 19.4654 16.6254 19.1272 16.6254C18.789 16.6254 18.4646 16.7527 18.2255 16.9793C17.9864 17.2059 17.852 17.5133 17.852 17.8338V20.9638L17.4822 20.6013C17.2421 20.3737 16.9165 20.2459 16.5769 20.2459C16.2373 20.2459 15.9116 20.3737 15.6715 20.6013C15.4314 20.8288 15.2965 21.1375 15.2965 21.4593C15.2965 21.7811 15.4314 22.0898 15.6715 22.3173L18.2218 24.7343C18.3431 24.8443 18.4861 24.9306 18.6426 24.9881C18.7953 25.052 18.9603 25.085 19.1272 25.085C19.2941 25.085 19.4591 25.052 19.6117 24.9881C19.7682 24.9306 19.9113 24.8443 20.0325 24.7343L22.5828 22.3173C22.7023 22.205 22.7972 22.0713 22.8619 21.9241C22.9267 21.7768 22.96 21.6188 22.96 21.4593C22.96 21.2998 22.9267 21.1418 22.8619 20.9945C22.7972 20.8473 22.7023 20.7136 22.5828 20.6013ZM11.4763 20.2508C11.8145 20.2508 12.1388 20.1235 12.378 19.8969C12.6171 19.6702 12.7514 19.3628 12.7514 19.0423C12.7514 18.7218 12.6171 18.4144 12.378 18.1878C12.1388 17.9612 11.8145 17.8338 11.4763 17.8338H6.37572C6.03753 17.8338 5.7132 17.9612 5.47406 18.1878C5.23492 18.4144 5.10058 18.7218 5.10058 19.0423C5.10058 19.3628 5.23492 19.6702 5.47406 19.8969C5.7132 20.1235 6.03753 20.2508 6.37572 20.2508H11.4763Z" fill="#008A7A"/>
</svg>
