<svg width="23" height="26" viewBox="0 0 23 26" fill="none" xmlns="http://www.w3.org/2000/svg">
<path d="M6.06254 10.5837H7.27087C7.59134 10.5837 7.89869 10.4564 8.12529 10.2297C8.3519 10.0031 8.47921 9.6958 8.47921 9.37533C8.47921 9.05486 8.3519 8.74751 8.12529 8.52091C7.89869 8.2943 7.59134 8.16699 7.27087 8.16699H6.06254C5.74207 8.16699 5.43473 8.2943 5.20812 8.52091C4.98151 8.74751 4.85421 9.05486 4.85421 9.37533C4.85421 9.6958 4.98151 10.0031 5.20812 10.2297C5.43473 10.4564 5.74207 10.5837 6.06254 10.5837ZM10.8959 17.8337H6.06254C5.74207 17.8337 5.43473 17.961 5.20812 18.1876C4.98151 18.4142 4.85421 18.7215 4.85421 19.042C4.85421 19.3625 4.98151 19.6698 5.20812 19.8964C5.43473 20.123 5.74207 20.2503 6.06254 20.2503H10.8959C11.2163 20.2503 11.5237 20.123 11.7503 19.8964C11.9769 19.6698 12.1042 19.3625 12.1042 19.042C12.1042 18.7215 11.9769 18.4142 11.7503 18.1876C11.5237 17.961 11.2163 17.8337 10.8959 17.8337ZM10.8959 13.0003H6.06254C5.74207 13.0003 5.43473 13.1276 5.20812 13.3542C4.98151 13.5808 4.85421 13.8882 4.85421 14.2087C4.85421 14.5291 4.98151 14.8365 5.20812 15.0631C5.43473 15.2897 5.74207 15.417 6.06254 15.417H10.8959C11.2163 15.417 11.5237 15.2897 11.7503 15.0631C11.9769 14.8365 12.1042 14.5291 12.1042 14.2087C12.1042 13.8882 11.9769 13.5808 11.7503 13.3542C11.5237 13.1276 11.2163 13.0003 10.8959 13.0003ZM19.2575 9.83449C19.3501 9.61444 19.3754 9.37191 19.3302 9.13751C19.285 8.90311 19.1715 8.68733 19.0038 8.51741L11.7538 1.26741C11.6539 1.17342 11.5397 1.09592 11.4155 1.03783C11.3794 1.0327 11.3428 1.0327 11.3067 1.03783L10.9684 0.916992H3.64587C2.68446 0.916992 1.76243 1.29891 1.08261 1.97873C0.402793 2.65855 0.020874 3.58058 0.020874 4.54199V21.4587C0.020874 22.4201 0.402793 23.3421 1.08261 24.0219C1.76243 24.7017 2.68446 25.0837 3.64587 25.0837H10.8959C11.2163 25.0837 11.5237 24.9564 11.7503 24.7297C11.9769 24.5031 12.1042 24.1958 12.1042 23.8753C12.1042 23.5549 11.9769 23.2475 11.7503 23.0209C11.5237 22.7943 11.2163 22.667 10.8959 22.667H3.64587C3.3254 22.667 3.01806 22.5397 2.79145 22.3131C2.56485 22.0865 2.43754 21.7791 2.43754 21.4587V4.54199C2.43754 4.22152 2.56485 3.91418 2.79145 3.68757C3.01806 3.46097 3.3254 3.33366 3.64587 3.33366H9.68754V6.95866C9.68754 7.92007 10.0695 8.8421 10.7493 9.52192C11.4291 10.2017 12.3511 10.5837 13.3125 10.5837H18.1459C18.3844 10.5825 18.6173 10.5107 18.8151 10.3774C19.0129 10.2441 19.1669 10.0552 19.2575 9.83449ZM13.3125 8.16699C12.9921 8.16699 12.6847 8.03969 12.4581 7.81308C12.2315 7.58647 12.1042 7.27913 12.1042 6.95866V5.03741L15.2338 8.16699H13.3125ZM21.7709 13.0003H15.7292C15.4087 13.0003 15.1014 13.1276 14.8748 13.3542C14.6482 13.5808 14.5209 13.8882 14.5209 14.2087V23.8753C14.5215 24.0939 14.5813 24.3083 14.6941 24.4955C14.8069 24.6828 14.9683 24.8359 15.1613 24.9387C15.3502 25.0357 15.5614 25.0812 15.7736 25.0706C15.9857 25.06 16.1913 24.9936 16.3696 24.8782L18.75 23.3074L21.1667 24.8782C21.3472 24.9826 21.5517 25.0385 21.7602 25.0405C21.9687 25.0425 22.1742 24.9905 22.3567 24.8895C22.5391 24.7885 22.6923 24.6421 22.8014 24.4644C22.9105 24.2867 22.9718 24.0837 22.9792 23.8753V14.2087C22.9792 13.8882 22.8519 13.5808 22.6253 13.3542C22.3987 13.1276 22.0913 13.0003 21.7709 13.0003ZM20.5625 21.6037L19.4267 20.8424C19.2269 20.7073 18.9912 20.6352 18.75 20.6352C18.5089 20.6352 18.2732 20.7073 18.0734 20.8424L16.9375 21.6037V15.417H20.5625V21.6037Z" fill="black"/>
<path d="M6.06254 10.5837H7.27087C7.59134 10.5837 7.89869 10.4564 8.12529 10.2297C8.3519 10.0031 8.47921 9.6958 8.47921 9.37533C8.47921 9.05486 8.3519 8.74751 8.12529 8.52091C7.89869 8.2943 7.59134 8.16699 7.27087 8.16699H6.06254C5.74207 8.16699 5.43473 8.2943 5.20812 8.52091C4.98151 8.74751 4.85421 9.05486 4.85421 9.37533C4.85421 9.6958 4.98151 10.0031 5.20812 10.2297C5.43473 10.4564 5.74207 10.5837 6.06254 10.5837ZM10.8959 17.8337H6.06254C5.74207 17.8337 5.43473 17.961 5.20812 18.1876C4.98151 18.4142 4.85421 18.7215 4.85421 19.042C4.85421 19.3625 4.98151 19.6698 5.20812 19.8964C5.43473 20.123 5.74207 20.2503 6.06254 20.2503H10.8959C11.2163 20.2503 11.5237 20.123 11.7503 19.8964C11.9769 19.6698 12.1042 19.3625 12.1042 19.042C12.1042 18.7215 11.9769 18.4142 11.7503 18.1876C11.5237 17.961 11.2163 17.8337 10.8959 17.8337ZM10.8959 13.0003H6.06254C5.74207 13.0003 5.43473 13.1276 5.20812 13.3542C4.98151 13.5808 4.85421 13.8882 4.85421 14.2087C4.85421 14.5291 4.98151 14.8365 5.20812 15.0631C5.43473 15.2897 5.74207 15.417 6.06254 15.417H10.8959C11.2163 15.417 11.5237 15.2897 11.7503 15.0631C11.9769 14.8365 12.1042 14.5291 12.1042 14.2087C12.1042 13.8882 11.9769 13.5808 11.7503 13.3542C11.5237 13.1276 11.2163 13.0003 10.8959 13.0003ZM19.2575 9.83449C19.3501 9.61444 19.3754 9.37191 19.3302 9.13751C19.285 8.90311 19.1715 8.68733 19.0038 8.51741L11.7538 1.26741C11.6539 1.17342 11.5397 1.09592 11.4155 1.03783C11.3794 1.0327 11.3428 1.0327 11.3067 1.03783L10.9684 0.916992H3.64587C2.68446 0.916992 1.76243 1.29891 1.08261 1.97873C0.402793 2.65855 0.020874 3.58058 0.020874 4.54199V21.4587C0.020874 22.4201 0.402793 23.3421 1.08261 24.0219C1.76243 24.7017 2.68446 25.0837 3.64587 25.0837H10.8959C11.2163 25.0837 11.5237 24.9564 11.7503 24.7297C11.9769 24.5031 12.1042 24.1958 12.1042 23.8753C12.1042 23.5549 11.9769 23.2475 11.7503 23.0209C11.5237 22.7943 11.2163 22.667 10.8959 22.667H3.64587C3.3254 22.667 3.01806 22.5397 2.79145 22.3131C2.56485 22.0865 2.43754 21.7791 2.43754 21.4587V4.54199C2.43754 4.22152 2.56485 3.91418 2.79145 3.68757C3.01806 3.46097 3.3254 3.33366 3.64587 3.33366H9.68754V6.95866C9.68754 7.92007 10.0695 8.8421 10.7493 9.52192C11.4291 10.2017 12.3511 10.5837 13.3125 10.5837H18.1459C18.3844 10.5825 18.6173 10.5107 18.8151 10.3774C19.0129 10.2441 19.1669 10.0552 19.2575 9.83449ZM13.3125 8.16699C12.9921 8.16699 12.6847 8.03969 12.4581 7.81308C12.2315 7.58647 12.1042 7.27913 12.1042 6.95866V5.03741L15.2338 8.16699H13.3125ZM21.7709 13.0003H15.7292C15.4087 13.0003 15.1014 13.1276 14.8748 13.3542C14.6482 13.5808 14.5209 13.8882 14.5209 14.2087V23.8753C14.5215 24.0939 14.5813 24.3083 14.6941 24.4955C14.8069 24.6828 14.9683 24.8359 15.1613 24.9387C15.3502 25.0357 15.5614 25.0812 15.7736 25.0706C15.9857 25.06 16.1913 24.9936 16.3696 24.8782L18.75 23.3074L21.1667 24.8782C21.3472 24.9826 21.5517 25.0385 21.7602 25.0405C21.9687 25.0425 22.1742 24.9905 22.3567 24.8895C22.5391 24.7885 22.6923 24.6421 22.8014 24.4644C22.9105 24.2867 22.9718 24.0837 22.9792 23.8753V14.2087C22.9792 13.8882 22.8519 13.5808 22.6253 13.3542C22.3987 13.1276 22.0913 13.0003 21.7709 13.0003ZM20.5625 21.6037L19.4267 20.8424C19.2269 20.7073 18.9912 20.6352 18.75 20.6352C18.5089 20.6352 18.2732 20.7073 18.0734 20.8424L16.9375 21.6037V15.417H20.5625V21.6037Z" fill="#008A7A"/>
</svg>
