<svg width="222" height="192" viewBox="0 0 222 192" fill="none" xmlns="http://www.w3.org/2000/svg">
<g clip-path="url(#clip0_1040_5033)">
<path d="M0 12C0 -87.4113 80.5887 -168 180 -168C279.411 -168 360 -87.4113 360 12C360 111.411 279.411 192 180 192C80.5887 192 0 111.411 0 12ZM290.713 12C290.713 -49.145 241.145 -98.7128 180 -98.7128C118.855 -98.7128 69.2872 -49.145 69.2872 12C69.2872 73.145 118.855 122.713 180 122.713C241.145 122.713 290.713 73.145 290.713 12Z" fill="#008A7A" fill-opacity="0.05"/>
</g>
<defs>
<clipPath id="clip0_1040_5033">
<rect width="222" height="192" fill="white" transform="matrix(-1 0 0 -1 222 192)"/>
</clipPath>
</defs>
</svg>
